<?xml version="1.0" encoding="UTF-8" standalone="no"?>
<!-- Created with Inkscape (http://www.inkscape.org/) -->

<svg
   width="180"
   height="56"
   viewBox="0 0 47.624999 14.816667"
   version="1.1"
   id="svg1494"
   inkscape:version="1.1.2 (0a00cf5339, 2022-02-04)"
   sodipodi:docname="logo.svg"
   xmlns:inkscape="http://www.inkscape.org/namespaces/inkscape"
   xmlns:sodipodi="http://sodipodi.sourceforge.net/DTD/sodipodi-0.dtd"
   xmlns="http://www.w3.org/2000/svg"
   xmlns:svg="http://www.w3.org/2000/svg">
  <sodipodi:namedview
     id="namedview1496"
     pagecolor="#ffffff"
     bordercolor="#666666"
     borderopacity="1.0"
     inkscape:pageshadow="2"
     inkscape:pageopacity="0.0"
     inkscape:pagecheckerboard="0"
     inkscape:document-units="mm"
     showgrid="false"
     units="px"
     inkscape:zoom="8.5065501"
     inkscape:cx="84.58188"
     inkscape:cy="30.270791"
     inkscape:window-width="1920"
     inkscape:window-height="1016"
     inkscape:window-x="0"
     inkscape:window-y="27"
     inkscape:window-maximized="1"
     inkscape:current-layer="layer1" />
  <defs
     id="defs1491" />
  <g
     inkscape:label="Capa 1"
     inkscape:groupmode="layer"
     id="layer1">
    <g
       id="g263"
       transform="matrix(0.09381792,0,0,-0.09381792,14.815667,4.0824708)">
      <path
         d="m 0,0 h 2.984 v -8.688 c -1.077,-0.913 -2.331,-1.613 -3.761,-2.101 -1.43,-0.488 -2.922,-0.732 -4.476,-0.732 -2.197,0 -4.176,0.493 -5.937,1.48 -1.762,0.987 -3.145,2.344 -4.151,4.074 -1.005,1.729 -1.507,3.676 -1.507,5.84 0,2.164 0.502,4.116 1.507,5.855 1.006,1.74 2.394,3.098 4.166,4.074 1.772,0.976 3.767,1.464 5.984,1.464 1.74,0 3.321,-0.292 4.741,-0.875 C 0.969,9.807 2.176,8.953 3.171,7.829 L 1.244,5.855 c -1.741,1.719 -3.845,2.578 -6.311,2.578 -1.658,0 -3.144,-0.366 -4.46,-1.098 -1.316,-0.731 -2.348,-1.75 -3.094,-3.054 -0.745,-1.306 -1.118,-2.775 -1.118,-4.408 0,-1.613 0.373,-3.072 1.118,-4.376 0.746,-1.305 1.778,-2.329 3.094,-3.071 1.316,-0.743 2.792,-1.114 4.429,-1.114 1.948,0 3.648,0.477 5.098,1.432 z"
         style="fill:#000000;fill-opacity:1;fill-rule:nonzero;stroke:none"
         id="path265" />
    </g>
    <g
       id="g267"
       transform="matrix(0.09381792,0,0,-0.09381792,16.978095,4.7930852)">
      <path
         d="m 0,0 c 1.275,0.743 2.279,1.766 3.016,3.071 0.735,1.305 1.103,2.763 1.103,4.376 0,1.612 -0.368,3.071 -1.103,4.376 -0.737,1.304 -1.741,2.328 -3.016,3.071 -1.274,0.743 -2.71,1.114 -4.305,1.114 -1.596,0 -3.041,-0.371 -4.336,-1.114 -1.296,-0.743 -2.311,-1.767 -3.047,-3.071 -0.735,-1.305 -1.103,-2.764 -1.103,-4.376 0,-1.613 0.368,-3.071 1.103,-4.376 0.736,-1.305 1.751,-2.328 3.047,-3.071 1.295,-0.743 2.74,-1.114 4.336,-1.114 1.595,0 3.031,0.371 4.305,1.114 m -10.242,-2.467 c -1.762,0.987 -3.145,2.35 -4.15,4.09 -1.006,1.739 -1.508,3.681 -1.508,5.824 0,2.142 0.502,4.084 1.508,5.824 1.005,1.74 2.388,3.103 4.15,4.089 1.761,0.987 3.74,1.48 5.937,1.48 2.176,0 4.144,-0.493 5.906,-1.48 1.761,-0.986 3.14,-2.344 4.135,-4.073 C 6.73,11.557 7.228,9.611 7.228,7.447 7.228,5.283 6.73,3.336 5.736,1.607 4.741,-0.123 3.362,-1.48 1.601,-2.467 c -1.762,-0.986 -3.73,-1.479 -5.906,-1.479 -2.197,0 -4.176,0.493 -5.937,1.479"
         style="fill:#000000;fill-opacity:1;fill-rule:nonzero;stroke:none"
         id="path269" />
    </g>
    <g
       id="g271"
       transform="matrix(0.09381792,0,0,-0.09381792,19.438027,4.8139971)">
      <path
         d="m 0,0 c 0.891,0.594 1.337,1.528 1.337,2.801 0,2.482 -1.772,3.723 -5.316,3.723 h -7.15 v -7.415 h 7.15 C -2.218,-0.891 -0.891,-0.594 0,0 M -11.129,16.231 V 9.102 h 6.373 c 1.596,0 2.823,0.302 3.684,0.907 0.859,0.605 1.29,1.491 1.29,2.658 0,1.166 -0.431,2.052 -1.29,2.657 -0.861,0.605 -2.088,0.907 -3.684,0.907 z M 3.388,6.126 C 4.113,5.182 4.476,3.989 4.476,2.546 4.476,0.615 3.766,-0.87 2.347,-1.91 0.927,-2.949 -1.14,-3.469 -3.854,-3.469 h -10.383 v 22.277 h 9.761 c 2.487,0 4.409,-0.509 5.766,-1.527 1.357,-1.018 2.036,-2.429 2.036,-4.232 0,-1.168 -0.264,-2.176 -0.793,-3.024 C 2.005,9.176 1.295,8.529 0.404,8.084 1.668,7.722 2.663,7.07 3.388,6.126"
         style="fill:#000000;fill-opacity:1;fill-rule:nonzero;stroke:none"
         id="path273" />
    </g>
    <path
       d="m 20.310003,3.0494136 h 0.291584 v 2.0899818 h -0.291584 z"
       style="fill:#000000;fill-opacity:1;fill-rule:nonzero;stroke:none;stroke-width:0.093818"
       id="path275" />
    <g
       id="g277"
       transform="matrix(0.09381792,0,0,-0.09381792,22.695528,4.8796608)">
      <path
         d="M 0,0 V -2.769 H -15.791 V 19.508 H -0.435 V 16.74 H -12.683 V 9.898 H -1.771 V 7.192 H -12.683 V 0 Z"
         style="fill:#000000;fill-opacity:1;fill-rule:nonzero;stroke:none"
         id="path279" />
    </g>
    <g
       id="g281"
       transform="matrix(0.09381792,0,0,-0.09381792,24.378264,4.1272781)">
      <path
         d="M 0,0 C 1.036,0.87 1.554,2.111 1.554,3.724 1.554,5.336 1.036,6.572 0,7.431 -1.036,8.29 -2.539,8.72 -4.508,8.72 H -9.792 V -1.305 h 5.284 C -2.539,-1.305 -1.036,-0.87 0,0 m 1.647,-10.789 -4.693,6.843 C -3.627,-3.989 -4.083,-4.01 -4.414,-4.01 h -5.378 v -6.779 H -12.9 v 22.278 h 8.486 c 2.818,0 5.036,-0.69 6.652,-2.069 C 3.854,8.041 4.662,6.142 4.662,3.724 4.662,2.005 4.248,0.541 3.419,-0.668 2.59,-1.878 1.409,-2.758 -0.124,-3.31 l 5.16,-7.479 z"
         style="fill:#000000;fill-opacity:1;fill-rule:nonzero;stroke:none"
         id="path283" />
    </g>
    <g
       id="g285"
       transform="matrix(0.09381792,0,0,-0.09381792,27.043783,3.0494419)">
      <path
         d="m 0,0 v -22.277 h -2.549 l -13.056,16.612 v -16.612 h -3.108 V 0 h 2.549 L -3.108,-16.612 V 0 Z"
         style="fill:#000000;fill-opacity:1;fill-rule:nonzero;stroke:none"
         id="path287" />
    </g>
    <g
       id="g289"
       transform="matrix(0.09381792,0,0,-0.09381792,28.981656,4.7930852)">
      <path
         d="m 0,0 c 1.275,0.743 2.279,1.766 3.016,3.071 0.735,1.305 1.103,2.763 1.103,4.376 0,1.612 -0.368,3.071 -1.103,4.376 -0.737,1.304 -1.741,2.328 -3.016,3.071 -1.274,0.743 -2.71,1.114 -4.305,1.114 -1.596,0 -3.041,-0.371 -4.336,-1.114 -1.296,-0.743 -2.311,-1.767 -3.047,-3.071 -0.735,-1.305 -1.103,-2.764 -1.103,-4.376 0,-1.613 0.368,-3.071 1.103,-4.376 0.736,-1.305 1.751,-2.328 3.047,-3.071 1.295,-0.743 2.74,-1.114 4.336,-1.114 1.595,0 3.031,0.371 4.305,1.114 m -10.242,-2.467 c -1.762,0.987 -3.145,2.35 -4.15,4.09 -1.006,1.739 -1.508,3.681 -1.508,5.824 0,2.142 0.502,4.084 1.508,5.824 1.005,1.74 2.388,3.103 4.15,4.089 1.761,0.987 3.74,1.48 5.937,1.48 2.176,0 4.144,-0.493 5.906,-1.48 1.761,-0.986 3.14,-2.344 4.135,-4.073 C 6.73,11.557 7.228,9.611 7.228,7.447 7.228,5.283 6.73,3.336 5.736,1.607 4.741,-0.123 3.362,-1.48 1.601,-2.467 c -1.762,-0.986 -3.73,-1.479 -5.906,-1.479 -2.197,0 -4.176,0.493 -5.937,1.479"
         style="fill:#000000;fill-opacity:1;fill-rule:nonzero;stroke:none"
         id="path291" />
    </g>
    <g
       id="g293"
       transform="matrix(0.09381792,0,0,-0.09381792,31.733261,4.8796608)">
      <path
         d="m 0,0 c 1.761,0 3.311,0.35 4.647,1.05 1.336,0.7 2.367,1.681 3.093,2.944 0.725,1.262 1.088,2.721 1.088,4.376 0,1.655 -0.363,3.113 -1.088,4.376 C 7.014,14.008 5.983,14.989 4.647,15.69 3.311,16.39 1.761,16.74 0,16.74 H -5.876 V 0 Z m -8.984,19.508 h 9.17 c 2.301,0 4.342,-0.466 6.124,-1.4 1.782,-0.934 3.165,-2.243 4.15,-3.93 0.984,-1.687 1.476,-3.623 1.476,-5.808 0,-2.186 -0.492,-4.122 -1.476,-5.808 C 9.475,0.875 8.092,-0.435 6.31,-1.369 4.528,-2.302 2.487,-2.769 0.186,-2.769 h -9.17 z"
         style="fill:#000000;fill-opacity:1;fill-rule:nonzero;stroke:none"
         id="path295" />
    </g>
    <g
       id="g297"
       transform="matrix(0.09381792,0,0,-0.09381792,34.780747,4.8796608)">
      <path
         d="M 0,0 V -2.769 H -15.791 V 19.508 H -0.435 V 16.74 H -12.683 V 9.898 H -1.771 V 7.192 H -12.683 V 0 Z"
         style="fill:#000000;fill-opacity:1;fill-rule:nonzero;stroke:none"
         id="path299" />
    </g>
    <g
       id="g301"
       transform="matrix(0.09381792,0,0,-0.09381792,35.253196,3.0494419)">
      <path
         d="M 0,0 H 3.108 V -19.508 H 14.89 v -2.769 H 0 Z"
         style="fill:#000000;fill-opacity:1;fill-rule:nonzero;stroke:none"
         id="path303" />
    </g>
    <g
       id="g305"
       transform="matrix(0.09381792,0,0,-0.09381792,16.891857,7.911096)">
      <path
         d="m 0,0 c -2.818,3.895 -7.397,5.986 -12.117,5.986 -8.454,0 -14.161,-6.635 -14.161,-15.073 0,-8.583 5.777,-14.785 14.372,-14.785 4.509,0 9.017,2.235 11.906,5.769 v -16.949 c -4.579,-1.442 -7.89,-2.524 -12.188,-2.524 -7.397,0 -14.442,2.885 -19.937,8.005 -5.847,5.41 -8.524,12.478 -8.524,20.556 0,7.428 2.747,14.568 7.82,19.906 5.213,5.481 12.751,8.799 20.218,8.799 4.439,0 8.525,-1.01 12.611,-2.741 z"
         style="fill:#000000;fill-opacity:1;fill-rule:nonzero;stroke:none"
         id="path307" />
    </g>
    <g
       id="g309"
       transform="matrix(0.09381792,0,0,-0.09381792,20.623718,8.1682326)">
      <path
         d="M 0,0 V 20.988 H 13.808 V -33.393 H 0 v 22.286 h -19.937 v -22.286 h -13.808 v 54.381 h 13.808 V 0 Z"
         style="fill:#000000;fill-opacity:1;fill-rule:nonzero;stroke:none"
         id="path311" />
    </g>
    <g
       id="g313"
       transform="matrix(0.09381792,0,0,-0.09381792,24.767627,7.7757725)">
      <path
         d="M 0,0 H -0.141 L -5.847,-17.309 H 5.636 Z m -9.652,-28.128 -3.663,-9.448 h -14.653 l 20.43,54.381 H 7.538 L 27.546,-37.576 H 12.821 l -3.452,9.448 z"
         style="fill:#000000;fill-opacity:1;fill-rule:nonzero;stroke:none"
         id="path315" />
    </g>
    <g
       id="g317"
       transform="matrix(0.09381792,0,0,-0.09381792,30.790523,7.911096)">
      <path
         d="m 0,0 c -2.818,3.895 -7.397,5.986 -12.118,5.986 -8.454,0 -14.159,-6.635 -14.159,-15.073 0,-8.583 5.776,-14.785 14.371,-14.785 4.509,0 9.017,2.235 11.906,5.769 v -16.949 c -4.579,-1.442 -7.891,-2.524 -12.188,-2.524 -7.397,0 -14.442,2.885 -19.937,8.005 -5.847,5.41 -8.524,12.478 -8.524,20.556 0,7.428 2.747,14.568 7.82,19.906 5.213,5.481 12.751,8.799 20.219,8.799 4.438,0 8.524,-1.01 12.61,-2.741 z"
         style="fill:#000000;fill-opacity:1;fill-rule:nonzero;stroke:none"
         id="path319" />
    </g>
    <g
       id="g321"
       transform="matrix(0.09381792,0,0,-0.09381792,32.515365,8.6621643)">
      <path
         d="m 0,0 c 0,-9.376 6.763,-16.228 15.006,-16.228 8.242,0 15.005,6.852 15.005,16.228 0,7.501 -6.763,14.353 -15.005,14.353 C 6.763,14.353 0,7.501 0,0 m 44.383,0.072 c 0,-17.598 -12.329,-30.003 -29.377,-30.003 -17.049,0 -29.377,12.405 -29.377,30.003 0,16.444 14.089,27.984 29.377,27.984 15.287,0 29.377,-11.54 29.377,-27.984"
         style="fill:#000000;fill-opacity:1;fill-rule:nonzero;stroke:none"
         id="path323" />
    </g>
    <g
       id="g325"
       transform="matrix(0.06202534,0,0,-0.06202534,8.2446952,7.7539878)">
      <path
         d="m 0,0 c -0.402,-39.274 -24.575,-70.953 -54.316,-70.953 -29.759,0 -53.91,31.69 -54.319,70.953 z"
         style="fill:#ffffff;fill-opacity:1;fill-rule:evenodd;stroke:none"
         id="path327" />
    </g>
    <g
       id="g329"
       transform="matrix(0.06202534,0,0,-0.06202534,4.4636928,0.7830341)">
      <path
         d="M 0,0 V 0 L -0.007,-0.048 -0.155,0.365 C -0.062,0.128 0,0 0,0 m 32.506,-23.982 c 0,0 3.482,0.37 6.565,1.836 2.057,0.978 4.339,0.106 4.685,-0.277 0,0 -2.772,2.861 -5.914,2.654 -3.157,-0.221 -6.665,0.137 -7.322,1.09 l 11.468,5.818 -11.686,-0.321 c 0,0 2.895,1.964 4.918,4.716 1.348,1.824 3.781,2.14 4.268,1.971 0,0 -3.795,1.193 -6.468,-0.465 -2.629,-1.644 -5.509,-2.943 -6.595,-2.459 l 0.045,0.044 8.078,9.932 -10.39,-5.398 c 0,0 1.761,3.046 2.381,6.391 0.41,2.253 2.46,3.589 2.981,3.63 0,0 -3.941,-0.561 -5.631,-3.231 -1.666,-2.67 -3.744,-5.136 -4.918,-5.099 l 3.333,12.557 -7.675,-9.514 c 0,0 1.591,2.75 0.291,7.498 -0.601,2.201 0.835,4.25 1.3,4.527 0,0 -3.396,-2.093 -3.87,-5.213 C 11.867,3.596 11.317,0.923 10.228,0.502 L 7.414,12.531 4.519,0.945 C 3.441,1.421 2.947,3.536 2.621,6.678 2.3,9.817 -0.982,12.073 -0.982,12.073 -0.543,11.796 0.783,9.669 0.077,7.498 -1.103,3.894 -0.498,1.384 -0.166,0.431 L -7.624,9.54 -4.282,-3.006 c -1.167,-0.055 -3.246,2.411 -4.919,5.088 -1.698,2.662 -5.634,3.238 -5.634,3.238 0.524,-0.063 2.566,-1.396 2.976,-3.633 0.627,-3.346 2.392,-6.395 2.392,-6.395 l -10.393,5.394 8.078,-9.932 0.056,-0.047 c -1.071,-0.484 -3.977,0.804 -6.598,2.454 -2.681,1.673 -6.472,0.473 -6.472,0.473 0.491,0.181 2.905,-0.129 4.257,-1.967 2.015,-2.74 4.932,-4.716 4.932,-4.716 l -11.693,0.318 11.461,-5.819 c -0.65,-0.971 -4.162,-1.303 -7.3,-1.082 -3.16,0.196 -5.929,-2.651 -5.929,-2.651 0.347,0.373 2.628,1.24 4.677,0.277 3.083,-1.458 6.572,-1.839 6.572,-1.839 l -10.459,-5.239 13.132,0.524 c -0.176,-1.166 -3.426,-3.278 -6.375,-4.404 -2.944,-1.145 -4.265,-4.881 -4.265,-4.881 0.151,0.491 1.854,2.23 4.132,2.211 1.819,-0.03 3.931,-0.074 5.944,0.598 l -6.233,-9.533 10.593,5.247 c -0.155,-0.278 -0.254,-0.454 -0.254,-0.454 -0.34,-1.37 -0.813,-3.087 -2.984,-4.841 -2.444,-1.983 -2.544,-5.974 -2.544,-5.974 -0.007,0.532 1.075,2.721 3.246,3.389 3.26,1.02 4.493,1.706 5.815,2.585 0.79,0.539 1.765,1.532 2.61,2.677 3.641,-2.562 8.065,-4.084 12.86,-4.084 4.823,0 9.286,1.547 12.934,4.165 0.857,-1.189 1.854,-2.208 2.651,-2.758 1.329,-0.879 2.573,-1.565 5.826,-2.585 2.168,-0.668 3.25,-2.857 3.25,-3.389 0,0 -0.108,3.991 -2.559,5.974 -2.16,1.754 -2.626,3.471 -2.976,4.841 0,0 -0.033,0.129 -0.129,0.339 l 10.36,-5.132 -6.188,9.463 c 1.953,-0.602 3.973,-0.55 5.723,-0.528 2.285,0.019 3.991,-1.72 4.153,-2.211 0,0 -1.336,3.736 -4.279,4.881 -2.942,1.126 -6.154,3.105 -6.328,4.272 l 13.129,-0.521 z"
         style="fill:#fcc443;fill-opacity:1;fill-rule:evenodd;stroke:none"
         id="path331" />
    </g>
    <g
       id="g333"
       transform="matrix(0.06202534,0,0,-0.06202534,1.5395766,7.7599362)">
      <path
         d="m 0,0 c 0.395,37.591 24.272,67.911 53.681,67.911 29.393,0 53.278,-30.313 53.677,-67.907 z"
         style="fill:#96c0e8;fill-opacity:1;fill-rule:evenodd;stroke:none"
         id="path335" />
    </g>
    <g
       id="g337"
       transform="matrix(0.06202534,0,0,-0.06202534,4.3678573,11.858954)">
      <path
         d="M 0,0 C 0,0 17.132,-3.851 29.601,6.185 29.601,6.185 28.39,8.105 0,0"
         style="fill:#bcd46c;fill-opacity:1;fill-rule:evenodd;stroke:none"
         id="path339" />
    </g>
    <g
       id="g341"
       transform="matrix(0.06202534,0,0,-0.06202534,3.5878023,11.557368)">
      <path
         d="M 0,0 C 2.389,-1.407 4.877,-2.574 7.458,-3.485 20.956,2.562 50.912,7.768 51.403,7.857 h 0.014 C 51.026,7.879 32.602,8.89 0,0"
         style="fill:#bcd46c;fill-opacity:1;fill-rule:evenodd;stroke:none"
         id="path343" />
    </g>
    <g
       id="g345"
       transform="matrix(0.06202534,0,0,-0.06202534,3.0688422,11.169114)">
      <path
         d="M 0,0 C 1.769,-1.639 3.615,-3.146 5.542,-4.475 9.474,-3.039 29.725,3.998 54.792,5.9 54.792,5.9 45.417,9.326 0,0"
         style="fill:#bcd46c;fill-opacity:1;fill-rule:evenodd;stroke:none"
         id="path347" />
    </g>
    <g
       id="g349"
       transform="matrix(0.06202534,0,0,-0.06202534,2.714374,10.786157)">
      <path
         d="M 0,0 C 1.17,-1.462 2.392,-2.865 3.667,-4.176 7.428,-3.116 32.141,3.633 54.644,4.191 54.644,4.191 46.149,8.688 0,0"
         style="fill:#bcd46c;fill-opacity:1;fill-rule:evenodd;stroke:none"
         id="path351" />
    </g>
    <g
       id="g353"
       transform="matrix(0.06202534,0,0,-0.06202534,5.7013591,10.280789)">
      <path
         d="m 0,0 c 0,0 -10.191,4.519 -52.57,-1.762 0.794,-1.318 1.629,-2.607 2.511,-3.843 C -47.105,-4.885 -23.523,0.661 0,0"
         style="fill:#bcd46c;fill-opacity:1;fill-rule:evenodd;stroke:none"
         id="path355" />
    </g>
    <g
       id="g357"
       transform="matrix(0.06202534,0,0,-0.06202534,5.2859258,9.9858074)">
      <path
         d="m 0,0 c 0,0 -13.421,5.242 -49.291,-0.085 0.483,-1.041 0.989,-2.068 1.517,-3.069 C -45.602,-2.758 -19.506,1.835 0,0"
         style="fill:#bcd46c;fill-opacity:1;fill-rule:evenodd;stroke:none"
         id="path359" />
    </g>
    <g
       id="g361"
       transform="matrix(0.06202534,0,0,-0.06202534,4.845341,9.6292125)">
      <path
         d="m 0,0 c 0.099,-0.008 0.203,-0.008 0.311,-0.008 0,0 -0.034,0.015 -0.115,0.048 -0.953,0.498 -8.732,3.689 -44.997,0.616 0.314,-0.886 0.635,-1.757 0.967,-2.628 C -42.028,-1.74 -21.755,0.93 0,0"
         style="fill:#bcd46c;fill-opacity:1;fill-rule:evenodd;stroke:none"
         id="path363" />
    </g>
    <g
       id="g365"
       transform="matrix(0.06202534,0,0,-0.06202534,4.3988579,9.3302433)">
      <path
         d="m 0,0 -1.71,2.913 c 0,0 -27.672,0.387 -37.767,-0.779 0.173,-0.712 0.366,-1.44 0.572,-2.145 C -36.157,0.099 -14.134,0.938 0,0"
         style="fill:#bcd46c;fill-opacity:1;fill-rule:evenodd;stroke:none"
         id="path367" />
    </g>
    <g
       id="g369"
       transform="matrix(0.06202534,0,0,-0.06202534,5.6183503,8.9153625)">
      <path
         d="M 0,0 V 0 C 0,0 -0.735,2.828 -1.152,3.426 L 7.281,8.54 c 0,0 2.201,-2.943 2.027,-3.335 z M 18.335,4.788 C 17.076,7.093 13.754,6.749 10.884,5.449 L 8.537,9.238 c 0,0 2.658,1.532 4.445,0.48 1.779,-1.045 4.198,-1.949 4.438,0.598 0.247,2.552 -2.935,4.7 -7.662,2.518 -5.383,-2.481 -12.97,-7.506 -12.97,-7.506 0,0 -4.224,3.393 -14.843,1.525 -10.626,-1.861 -10.91,0.037 -10.91,0.037 0,0 -0.034,4.374 -3.46,4.235 -3.43,-0.145 -2.581,-4.933 -0.144,-6.724 1.791,-1.307 2.943,-1.709 7.913,-1.573 3.939,0.118 10.91,-0.266 14.994,-2.433 l -12.834,0.129 c 0,0 -1.046,0.07 -0.625,-1.292 0.421,-1.377 3.468,-8.363 7.03,-10.224 1.643,0 7.075,-0.169 7.075,-0.169 0,0 1.687,0.516 2.691,1.052 1.643,0.772 4.014,3.359 4.922,5.733 1.056,1.053 14.632,8.995 15.503,6.757 0.876,-1.717 1.574,-1.476 2.629,-1.303 1.045,0.185 2.514,1.403 1.606,3.71"
         style="fill:#855c3a;fill-opacity:1;fill-rule:evenodd;stroke:none"
         id="path371" />
    </g>
    <g
       id="g373"
       transform="matrix(0.06202534,0,0,-0.06202534,7.6943011,9.5383384)">
      <path
         d="m 0,0 -0.542,0.292 c -15.685,7.199 -34.445,5.091 -34.445,5.091 0,0 -1.868,-5.013 -7.905,-6.471 l -4.973,0.121 c 0,0 1.008,-0.218 2.23,-0.509 -0.1,0 -0.196,0.007 -0.295,0.007 12.051,-3.076 28.126,-18.52 31.985,-22.364 0.406,0.425 0.801,0.871 1.185,1.315 -5.136,7.303 -26.839,21.658 -26.839,21.658 11.047,-2.326 25.676,-16.504 28.667,-19.495 0.594,0.739 1.181,1.499 1.735,2.271 -6.151,6.72 -27.293,19.59 -27.293,19.59 11.254,-2.975 24.809,-14.757 28.401,-18.002 0.451,0.664 0.897,1.351 1.325,2.053 -6.424,7.728 -28.101,18.641 -28.101,18.641 12.831,-3.064 26.011,-13.623 29.397,-16.489 0.392,0.694 0.776,1.4 1.152,2.108 -4.733,4.276 -24.811,15.068 -24.811,15.068 6.236,-0.701 23.515,-11.449 25.893,-12.938 0.229,0.514 0.458,1.034 0.694,1.558 -2.437,2.806 -18.339,10.439 -18.339,10.439 7.558,-0.894 17.232,-7.569 19.029,-8.855 0.219,0.511 0.421,1.027 0.628,1.548 -2.311,2.063 -10.072,5.579 -10.072,5.579 4.154,-0.347 8.78,-3.161 10.545,-4.32 0.258,0.69 0.51,1.392 0.749,2.104"
         style="fill:#bcd46c;fill-opacity:1;fill-rule:evenodd;stroke:none"
         id="path375" />
    </g>
    <g
       id="g377"
       transform="matrix(0.06202534,0,0,-0.06202534,3.219471,12.474406)">
      <path
         d="m 0,0 c 2.359,-3.836 7.315,-4.213 7.315,-4.213 0,0 -0.511,4.246 -1.751,6.31 C 4.297,4.191 0.155,7.631 -0.905,9.711 -1.244,10.383 -2.359,3.833 0,0"
         style="fill:#3ba336;fill-opacity:1;fill-rule:evenodd;stroke:none"
         id="path379" />
    </g>
    <g
       id="g381"
       transform="matrix(0.06202534,0,0,-0.06202534,3.7293749,12.934802)">
      <path
         d="m 0,0 c 0,0 -4.808,1.916 -7.71,1.787 -2.953,-0.133 -9.012,-2.544 -11.833,-2.473 -0.905,0.029 5.405,-4.937 10.851,-4.649 C -3.256,-5.039 0,0 0,0"
         style="fill:#3ba336;fill-opacity:1;fill-rule:evenodd;stroke:none"
         id="path383" />
    </g>
    <g
       id="g385"
       transform="matrix(0.06202534,0,0,-0.06202534,2.945288,12.381244)">
      <path
         d="m 0,0 c 0,0 0.495,4.501 -0.299,6.919 -0.797,2.466 -4.247,7.008 -4.84,9.407 C -5.328,17.095 -8.053,10.607 -6.531,6.092 -5.01,1.565 0,0 0,0"
         style="fill:#3ba336;fill-opacity:1;fill-rule:evenodd;stroke:none"
         id="path387" />
    </g>
    <g
       id="g389"
       transform="matrix(0.06202534,0,0,-0.06202534,2.982069,12.550102)">
      <path
         d="M 0,0 C 0,0 -4.176,2.88 -6.993,3.386 -9.84,3.899 -16.157,2.92 -18.841,3.603 -19.698,3.825 -14.743,-2.308 -9.475,-3.212 -4.213,-4.113 0,0 0,0"
         style="fill:#3ba336;fill-opacity:1;fill-rule:evenodd;stroke:none"
         id="path391" />
    </g>
    <g
       id="g393"
       transform="matrix(0.06202534,0,0,-0.06202534,1.9190971,11.406956)">
      <path
         d="m 0,0 c 0.897,-4.685 5.652,-6.912 5.652,-6.912 0,0 1.1,4.405 0.639,6.904 C 5.826,2.529 3.016,7.506 2.751,9.961 2.658,10.744 -0.897,4.689 0,0"
         style="fill:#3ba336;fill-opacity:1;fill-rule:evenodd;stroke:none"
         id="path395" />
    </g>
    <g
       id="g397"
       transform="matrix(0.06202534,0,0,-0.06202534,2.3070222,11.994026)">
      <path
         d="m 0,0 c 0,0 -3.781,3.389 -6.495,4.253 -2.773,0.872 -9.16,0.702 -11.734,1.721 -0.82,0.332 3.309,-6.384 8.418,-7.946 C -4.7,-3.534 0,0 0,0"
         style="fill:#3ba336;fill-opacity:1;fill-rule:evenodd;stroke:none"
         id="path399" />
    </g>
    <g
       id="g401"
       transform="matrix(0.06202534,0,0,-0.06202534,1.704068,11.157168)">
      <path
         d="M 0,0 C 0,0 1.828,4.143 1.802,6.69 1.772,9.282 -0.144,14.65 0.004,17.11 0.055,17.911 -4.479,12.542 -4.398,7.776 -4.305,3.001 0,0 0,0"
         style="fill:#3ba336;fill-opacity:1;fill-rule:evenodd;stroke:none"
         id="path403" />
    </g>
    <g
       id="g405"
       transform="matrix(0.06202534,0,0,-0.06202534,1.7408549,11.315979)">
      <path
         d="m 0,0 c 0,0 -3.286,3.866 -5.867,5.088 -2.621,1.237 -8.976,1.931 -11.387,3.29 -0.775,0.436 2.411,-6.764 7.266,-9.005 C -5.139,-2.868 0,0 0,0"
         style="fill:#3ba336;fill-opacity:1;fill-rule:evenodd;stroke:none"
         id="path407" />
    </g>
    <g
       id="g409"
       transform="matrix(0.06202534,0,0,-0.06202534,1.4334265,10.029902)">
      <path
         d="m 0,0 c 0.521,2.53 -0.21,8.194 0.454,10.568 0.218,0.76 -5.357,-3.516 -6.288,-8.201 -0.915,-4.678 2.651,-8.529 2.651,-8.529 0,0 2.667,3.667 3.183,6.162"
         style="fill:#3ba336;fill-opacity:1;fill-rule:evenodd;stroke:none"
         id="path411" />
    </g>
    <g
       id="g413"
       transform="matrix(0.06202534,0,0,-0.06202534,1.2728675,10.571135)">
      <path
         d="M 0,0 C 0,0 -2.588,4.369 -4.918,6.008 -7.292,7.669 -13.436,9.43 -15.585,11.176 -16.279,11.731 -14.351,4.099 -9.95,1.067 -5.549,-1.964 0,0 0,0"
         style="fill:#3ba336;fill-opacity:1;fill-rule:evenodd;stroke:none"
         id="path415" />
    </g>
    <g
       id="g417"
       transform="matrix(0.06202534,0,0,-0.06202534,1.2262618,9.2548764)">
      <path
         d="m 0,0 c 0.841,2.444 0.823,8.149 1.794,10.427 0.31,0.727 -5.768,-2.81 -7.27,-7.333 -1.517,-4.53 1.539,-8.798 1.539,-8.798 0,0 3.106,3.297 3.937,5.704"
         style="fill:#3ba336;fill-opacity:1;fill-rule:evenodd;stroke:none"
         id="path419" />
    </g>
    <g
       id="g421"
       transform="matrix(0.06202534,0,0,-0.06202534,0.92702033,9.7678886)">
      <path
         d="m 0,0 c 0,0 -1.732,4.77 -3.718,6.812 -2.02,2.078 -7.739,4.948 -9.526,7.06 -0.576,0.679 -0.1,-7.189 3.666,-10.974 C -5.819,-0.897 0,0 0,0"
         style="fill:#3ba336;fill-opacity:1;fill-rule:evenodd;stroke:none"
         id="path423" />
    </g>
    <g
       id="g425"
       transform="matrix(0.06202534,0,0,-0.06202534,0.72989179,8.8612765)">
      <path
         d="m 0,0 c 0,0 -0.978,4.985 -2.629,7.308 -1.676,2.366 -6.886,6.077 -8.319,8.439 -0.462,0.757 -1.21,-7.081 1.932,-11.408 C -5.889,0.008 0,0 0,0"
         style="fill:#3ba336;fill-opacity:1;fill-rule:evenodd;stroke:none"
         id="path427" />
    </g>
    <g
       id="g429"
       transform="matrix(0.06202534,0,0,-0.06202534,0.76029038,8.739899)">
      <path
         d="m 0,0 c 0,0 3.64,2.699 4.877,4.925 1.259,2.256 2.245,7.883 3.6,9.947 C 8.909,15.529 2.311,13.118 0.026,8.934 -2.253,4.744 0,0 0,0"
         style="fill:#3ba336;fill-opacity:1;fill-rule:evenodd;stroke:none"
         id="path431" />
    </g>
    <g
       id="g433"
       transform="matrix(0.06202534,0,0,-0.06202534,0.67673567,7.9924318)">
      <path
         d="M 0,0 C 0,0 -0.084,5.081 -1.303,7.661 -2.537,10.283 -7.011,14.85 -8.004,17.427 -8.333,18.254 -10.445,10.663 -8.112,5.86 -5.785,1.037 0,0 0,0"
         style="fill:#3ba336;fill-opacity:1;fill-rule:evenodd;stroke:none"
         id="path435" />
    </g>
    <g
       id="g437"
       transform="matrix(0.06202534,0,0,-0.06202534,0.75516054,7.8423489)">
      <path
         d="M 0,0 C 0,0 3.803,2.463 5.18,4.601 6.579,6.775 7.93,12.318 9.407,14.297 9.88,14.932 3.138,12.949 0.594,8.913 -1.95,4.877 0,0 0,0"
         style="fill:#3ba336;fill-opacity:1;fill-rule:evenodd;stroke:none"
         id="path439" />
    </g>
    <g
       id="g441"
       transform="matrix(0.06202534,0,0,-0.06202534,0.72127022,7.0415581)">
      <path
         d="M 0,0 C 0,0 0.842,4.718 0.185,7.344 -0.487,9.998 -3.818,15.045 -4.268,17.626 -4.416,18.446 -7.754,11.789 -6.473,6.904 -5.188,2.016 0,0 0,0"
         style="fill:#3ba336;fill-opacity:1;fill-rule:evenodd;stroke:none"
         id="path443" />
    </g>
    <g
       id="g445"
       transform="matrix(0.06202534,0,0,-0.06202534,0.84592218,6.8817066)">
      <path
         d="M 0,0 C 0,0 3.604,1.111 5.191,2.515 6.805,3.944 9.139,8.079 10.771,9.319 11.294,9.725 5.45,9.655 2.493,7.004 -0.454,4.349 0,0 0,0"
         style="fill:#3ba336;fill-opacity:1;fill-rule:evenodd;stroke:none"
         id="path447" />
    </g>
    <g
       id="g449"
       transform="matrix(0.06202534,0,0,-0.06202534,0.93853906,6.2568141)">
      <path
         d="M 0,0 C 0,0 1.923,4.7 1.816,7.547 1.713,10.452 -0.602,16.405 -0.506,19.17 -0.473,20.056 -5.405,13.916 -5.158,8.569 -4.911,3.234 0,0 0,0"
         style="fill:#3ba336;fill-opacity:1;fill-rule:evenodd;stroke:none"
         id="path451" />
    </g>
    <g
       id="g453"
       transform="matrix(0.06202534,0,0,-0.06202534,1.7988675,5.463665)">
      <path
         d="m 0,0 c 0.539,0.409 -5.449,0.34 -8.477,-2.374 -3.017,-2.721 -2.552,-7.167 -2.552,-7.167 0,0 3.692,1.137 5.318,2.573 C -4.065,-5.513 -1.676,-1.281 0,0"
         style="fill:#3ba336;fill-opacity:1;fill-rule:evenodd;stroke:none"
         id="path455" />
    </g>
    <g
       id="g457"
       transform="matrix(0.06202534,0,0,-0.06202534,1.4753991,4.987434)">
      <path
         d="m 0,0 c 0.757,2.799 0.317,9.171 1.229,11.79 0.288,0.841 -6.232,-3.567 -7.584,-8.732 -1.355,-5.181 2.374,-9.729 2.374,-9.729 0,0 3.231,3.913 3.981,6.671"
         style="fill:#3ba336;fill-opacity:1;fill-rule:evenodd;stroke:none"
         id="path459" />
    </g>
    <g
       id="g461"
       transform="matrix(0.06202534,0,0,-0.06202534,1.4123068,5.318054)">
      <path
         d="M 0,0 C 0,0 3.341,0.114 5.029,0.938 6.742,1.787 9.703,4.781 11.394,5.476 11.93,5.696 6.912,7.004 3.769,5.412 0.612,3.832 0,0 0,0"
         style="fill:#3ba336;fill-opacity:1;fill-rule:evenodd;stroke:none"
         id="path463" />
    </g>
    <g
       id="g465"
       transform="matrix(0.06202534,0,0,-0.06202534,2.0880668,4.4798809)">
      <path
         d="m 0,0 c -2.876,-1.074 -3.774,-4.331 -3.774,-4.331 0,0 2.902,-0.229 4.445,0.336 C 2.23,-3.419 5.088,-1.1 6.616,-0.668 7.1,-0.531 2.875,1.074 0,0"
         style="fill:#3ba336;fill-opacity:1;fill-rule:evenodd;stroke:none"
         id="path467" />
    </g>
    <g
       id="g469"
       transform="matrix(0.06202534,0,0,-0.06202534,2.0156957,4.2564471)">
      <path
         d="M 0,0 C 0.75,2.211 0.713,7.374 1.577,9.437 1.85,10.091 -3.626,6.871 -4.97,2.769 c -1.34,-4.099 1.433,-7.942 1.433,-7.942 0,0 2.802,2.991 3.537,5.173"
         style="fill:#3ba336;fill-opacity:1;fill-rule:evenodd;stroke:none"
         id="path471" />
    </g>
    <g
       id="g473"
       transform="matrix(0.06202534,0,0,-0.06202534,2.9279329,4.0780931)">
      <path
         d="m 0,0 c 0.487,0.143 -3.736,1.754 -6.616,0.672 -2.873,-1.082 -3.781,-4.342 -3.781,-4.342 0,0 2.913,-0.214 4.456,0.347 C -4.383,-2.758 -1.532,-0.439 0,0"
         style="fill:#3ba336;fill-opacity:1;fill-rule:evenodd;stroke:none"
         id="path475" />
    </g>
    <g
       id="g477"
       transform="matrix(0.06202534,0,0,-0.06202534,2.4781687,3.829173)">
      <path
         d="m 0,0 c 0.628,1.857 0.595,6.184 1.315,7.912 0.232,0.546 -4.353,-2.16 -5.476,-5.593 -1.133,-3.438 1.2,-6.661 1.2,-6.661 0,0 2.349,2.51 2.961,4.342"
         style="fill:#3ba336;fill-opacity:1;fill-rule:evenodd;stroke:none"
         id="path479" />
    </g>
    <g
       id="g481"
       transform="matrix(0.06202534,0,0,-0.06202534,3.4046472,3.3880427)">
      <path
         d="m 0,0 c 0.609,0.318 -5.421,1.296 -8.935,-0.912 -3.504,-2.205 -3.818,-6.764 -3.818,-6.764 0,0 3.91,0.502 5.8,1.661 C -5.04,-4.833 -1.909,-0.997 0,0"
         style="fill:#3ba336;fill-opacity:1;fill-rule:evenodd;stroke:none"
         id="path483" />
    </g>
    <g
       id="g485"
       transform="matrix(0.06202534,0,0,-0.06202534,3.6922094,13.226513)">
      <path
         d="m 0,0 c -3.958,-2.164 -6.224,-8.396 -5.597,-7.987 1.95,1.271 7.259,2.219 9.393,3.416 C 5.889,-3.401 8.434,0.04 8.434,0.04 8.434,0.04 3.959,2.164 0,0"
         style="fill:#3ba336;fill-opacity:1;fill-rule:evenodd;stroke:none"
         id="path487" />
    </g>
    <g
       id="g489"
       transform="matrix(0.06202534,0,0,-0.06202534,6.5509389,12.474406)">
      <path
         d="m 0,0 c 2.367,3.833 1.248,10.383 0.912,9.711 -1.063,-2.08 -5.209,-5.52 -6.476,-7.614 -1.233,-2.064 -1.746,-6.31 -1.746,-6.31 0,0 4.947,0.377 7.31,4.213"
         style="fill:#3ba336;fill-opacity:1;fill-rule:evenodd;stroke:none"
         id="path491" />
    </g>
    <g
       id="g493"
       transform="matrix(0.06202534,0,0,-0.06202534,6.5196098,12.823963)">
      <path
         d="m 0,0 c -2.905,0.136 -7.709,-1.787 -7.709,-1.787 0,0 3.249,-5.04 8.702,-5.336 C 6.428,-7.41 12.735,-2.448 11.83,-2.474 9.009,-2.54 2.954,-0.133 0,0"
         style="fill:#3ba336;fill-opacity:1;fill-rule:evenodd;stroke:none"
         id="path495" />
    </g>
    <g
       id="g497"
       transform="matrix(0.06202534,0,0,-0.06202534,7.1440676,11.368587)">
      <path
         d="m 0,0 c -0.595,-2.397 -4.043,-6.938 -4.845,-9.408 -0.785,-2.415 -0.294,-6.919 -0.294,-6.919 0,0 5.01,1.569 6.527,6.092 C 2.913,-5.719 0.188,0.767 0,0"
         style="fill:#3ba336;fill-opacity:1;fill-rule:evenodd;stroke:none"
         id="path499" />
    </g>
    <g
       id="g501"
       transform="matrix(0.06202534,0,0,-0.06202534,7.2220025,12.339985)">
      <path
         d="m 0,0 c -2.806,-0.506 -6.99,-3.386 -6.99,-3.386 0,0 4.213,-4.113 9.478,-3.209 5.273,0.898 10.217,7.027 9.36,6.805 C 9.164,-0.473 2.846,0.513 0,0"
         style="fill:#3ba336;fill-opacity:1;fill-rule:evenodd;stroke:none"
         id="path503" />
    </g>
    <g
       id="g505"
       transform="matrix(0.06202534,0,0,-0.06202534,7.681145,10.789377)">
      <path
         d="m 0,0 c -0.27,-2.455 -3.083,-7.425 -3.541,-9.965 -0.458,-2.503 0.628,-6.909 0.628,-6.909 0,0 4.755,2.238 5.664,6.913 C 3.648,-5.272 0.084,0.783 0,0"
         style="fill:#3ba336;fill-opacity:1;fill-rule:evenodd;stroke:none"
         id="path507" />
    </g>
    <g
       id="g509"
       transform="matrix(0.06202534,0,0,-0.06202534,7.8668675,11.730376)">
      <path
         d="m 0,0 c -2.718,-0.864 -6.502,-4.253 -6.502,-4.253 0,0 4.7,-3.533 9.81,-1.971 5.11,1.565 9.242,8.273 8.418,7.949 C 9.153,0.702 2.766,0.875 0,0"
         style="fill:#3ba336;fill-opacity:1;fill-rule:evenodd;stroke:none"
         id="path511" />
    </g>
    <g
       id="g513"
       transform="matrix(0.06202534,0,0,-0.06202534,8.0665584,11.157168)">
      <path
         d="M 0,0 C 0,0 4.305,3.001 4.398,7.776 4.479,12.542 -0.055,17.911 -0.004,17.11 0.144,14.65 -1.772,9.282 -1.801,6.69 -1.828,4.143 0,0 0,0"
         style="fill:#3ba336;fill-opacity:1;fill-rule:evenodd;stroke:none"
         id="path515" />
    </g>
    <g
       id="g517"
       transform="matrix(0.06202534,0,0,-0.06202534,9.1000059,10.796423)">
      <path
         d="m 0,0 c -2.407,-1.355 -8.765,-2.049 -11.382,-3.286 -2.592,-1.226 -5.867,-5.091 -5.867,-5.091 0,0 5.128,-2.866 9.987,-0.624 C -2.414,-6.772 0.768,0.439 0,0"
         style="fill:#3ba336;fill-opacity:1;fill-rule:evenodd;stroke:none"
         id="path519" />
    </g>
    <g
       id="g521"
       transform="matrix(0.06202534,0,0,-0.06202534,8.698708,9.8828211)">
      <path
         d="m 0,0 c -0.919,4.678 -6.494,8.961 -6.284,8.2 0.671,-2.381 -0.064,-8.042 0.45,-10.57 0.52,-2.493 3.183,-6.163 3.183,-6.163 0,0 3.57,3.851 2.651,8.533"
         style="fill:#3ba336;fill-opacity:1;fill-rule:evenodd;stroke:none"
         id="path523" />
    </g>
    <g
       id="g525"
       transform="matrix(0.06202534,0,0,-0.06202534,9.4643548,9.8779642)">
      <path
         d="m 0,0 c -2.145,-1.746 -8.289,-3.507 -10.663,-5.165 -2.334,-1.639 -4.922,-6.011 -4.922,-6.011 0,0 5.55,-1.964 9.955,1.067 C -1.23,-7.078 0.694,0.558 0,0"
         style="fill:#3ba336;fill-opacity:1;fill-rule:evenodd;stroke:none"
         id="path527" />
    </g>
    <g
       id="g529"
       transform="matrix(0.06202534,0,0,-0.06202534,8.8843251,9.0628778)">
      <path
         d="m 0,0 c -1.506,4.523 -7.587,8.06 -7.273,7.329 0.96,-2.278 0.955,-7.983 1.797,-10.423 0.824,-2.411 3.936,-5.704 3.936,-5.704 0,0 3.05,4.267 1.54,8.798"
         style="fill:#3ba336;fill-opacity:1;fill-rule:evenodd;stroke:none"
         id="path531" />
    </g>
    <g
       id="g533"
       transform="matrix(0.06202534,0,0,-0.06202534,9.664976,8.9074483)">
      <path
         d="m 0,0 c -1.787,-2.112 -7.499,-4.985 -9.53,-7.063 -1.983,-2.042 -3.714,-6.809 -3.714,-6.809 0,0 5.815,-0.897 9.574,2.892 C 0.099,-7.189 0.572,0.679 0,0"
         style="fill:#3ba336;fill-opacity:1;fill-rule:evenodd;stroke:none"
         id="path535" />
    </g>
    <g
       id="g537"
       transform="matrix(0.06202534,0,0,-0.06202534,9.2036996,8.407915)">
      <path
         d="m 0,0 c -1.654,-2.326 -2.629,-7.307 -2.629,-7.307 0,0 5.885,0.004 9.023,4.338 C 9.529,1.359 8.783,9.193 8.322,8.44 6.882,6.069 1.68,2.362 0,0"
         style="fill:#3ba336;fill-opacity:1;fill-rule:evenodd;stroke:none"
         id="path539" />
    </g>
    <g
       id="g541"
       transform="matrix(0.06202534,0,0,-0.06202534,9.008649,8.1856283)">
      <path
         d="m 0,0 c -2.282,4.183 -8.883,6.594 -8.451,5.926 1.355,-2.064 2.348,-7.68 3.604,-9.932 1.232,-2.226 4.873,-4.929 4.873,-4.929 0,0 2.26,4.744 -0.026,8.935"
         style="fill:#3ba336;fill-opacity:1;fill-rule:evenodd;stroke:none"
         id="path543" />
    </g>
    <g
       id="g545"
       transform="matrix(0.06202534,0,0,-0.06202534,9.0938962,7.9924318)">
      <path
         d="M 0,0 C 0,0 5.785,1.037 8.112,5.86 10.445,10.663 8.333,18.254 8.004,17.427 7.011,14.85 2.536,10.283 1.3,7.661 0.084,5.081 0,0 0,0"
         style="fill:#3ba336;fill-opacity:1;fill-rule:evenodd;stroke:none"
         id="path547" />
    </g>
    <g
       id="g549"
       transform="matrix(0.06202534,0,0,-0.06202534,8.4319994,6.9556037)">
      <path
         d="m 0,0 c 1.477,-1.982 2.824,-7.52 4.228,-9.696 1.377,-2.141 5.187,-4.6 5.187,-4.6 0,0 1.943,4.878 -0.602,8.909 C 6.269,-1.347 -0.473,0.635 0,0"
         style="fill:#3ba336;fill-opacity:1;fill-rule:evenodd;stroke:none"
         id="path551" />
    </g>
    <g
       id="g553"
       transform="matrix(0.06202534,0,0,-0.06202534,9.0494677,7.0415581)">
      <path
         d="M 0,0 C 0,0 5.181,2.016 6.469,6.904 7.758,11.789 4.416,18.446 4.268,17.626 3.811,15.045 0.487,9.998 -0.18,7.344 -0.849,4.718 0,0 0,0"
         style="fill:#3ba336;fill-opacity:1;fill-rule:evenodd;stroke:none"
         id="path555" />
    </g>
    <g
       id="g557"
       transform="matrix(0.06202534,0,0,-0.06202534,8.2567033,6.3033639)">
      <path
         d="m 0,0 c 1.631,-1.251 3.965,-5.387 5.575,-6.804 1.591,-1.411 5.195,-2.518 5.195,-2.518 0,0 0.454,4.345 -2.496,6.996 C 5.32,0.333 -0.524,0.403 0,0"
         style="fill:#3ba336;fill-opacity:1;fill-rule:evenodd;stroke:none"
         id="path559" />
    </g>
    <g
       id="g561"
       transform="matrix(0.06202534,0,0,-0.06202534,9.1520142,5.725027)">
      <path
         d="m 0,0 c 0.247,5.336 -4.685,11.483 -4.652,10.601 0.096,-2.769 -2.219,-8.725 -2.323,-11.627 -0.106,-2.846 1.817,-7.547 1.817,-7.547 0,0 4.918,3.238 5.158,8.573"
         style="fill:#3ba336;fill-opacity:1;fill-rule:evenodd;stroke:none"
         id="path563" />
    </g>
    <g
       id="g565"
       transform="matrix(0.06202534,0,0,-0.06202534,7.9717651,5.463665)">
      <path
         d="m 0,0 c 1.676,-1.281 4.061,-5.513 5.711,-6.968 1.626,-1.436 5.314,-2.573 5.314,-2.573 0,0 0.468,4.446 -2.552,7.167 C 5.449,0.34 -0.532,0.409 0,0"
         style="fill:#3ba336;fill-opacity:1;fill-rule:evenodd;stroke:none"
         id="path567" />
    </g>
    <g
       id="g569"
       transform="matrix(0.06202534,0,0,-0.06202534,8.5420262,5.4011741)">
      <path
         d="M 0,0 C 0,0 3.729,4.553 2.374,9.718 1.022,14.89 -5.498,19.296 -5.21,18.461 -4.297,15.847 -4.737,9.47 -3.98,6.672 -3.238,3.914 0,0 0,0"
         style="fill:#3ba336;fill-opacity:1;fill-rule:evenodd;stroke:none"
         id="path571" />
    </g>
    <g
       id="g573"
       transform="matrix(0.06202534,0,0,-0.06202534,7.6516211,4.9783785)">
      <path
         d="m 0,0 c 1.687,-0.694 4.652,-3.689 6.362,-4.538 1.687,-0.827 5.035,-0.938 5.035,-0.938 0,0 -0.619,3.83 -3.766,5.414 C 4.489,1.525 -0.546,0.218 0,0"
         style="fill:#3ba336;fill-opacity:1;fill-rule:evenodd;stroke:none"
         id="path575" />
    </g>
    <g
       id="g577"
       transform="matrix(0.06202534,0,0,-0.06202534,7.3124355,4.5213571)">
      <path
         d="m 0,0 c 1.525,-0.439 4.383,-2.758 5.945,-3.322 1.539,-0.57 4.441,-0.348 4.441,-0.348 0,0 -0.893,3.26 -3.769,4.339 C 3.737,1.747 -0.483,0.141 0,0"
         style="fill:#3ba336;fill-opacity:1;fill-rule:evenodd;stroke:none"
         id="path579" />
    </g>
    <g
       id="g581"
       transform="matrix(0.06202534,0,0,-0.06202534,7.9738923,4.5774653)">
      <path
         d="M 0,0 C 0,0 2.784,3.847 1.443,7.952 0.099,12.044 -5.38,15.274 -5.103,14.61 -4.239,12.55 -4.275,7.392 -3.534,5.173 -2.799,2.998 0,0 0,0"
         style="fill:#3ba336;fill-opacity:1;fill-rule:evenodd;stroke:none"
         id="path583" />
    </g>
    <g
       id="g585"
       transform="matrix(0.06202534,0,0,-0.06202534,7.4874583,4.3054036)">
      <path
         d="M 0,0 C 0,0 -0.897,3.256 -3.777,4.331 -6.649,5.412 -10.884,3.803 -10.39,3.67 -8.861,3.23 -6.015,0.905 -4.445,0.34 -2.913,-0.218 0,0 0,0"
         style="fill:#3ba336;fill-opacity:1;fill-rule:evenodd;stroke:none"
         id="path587" />
    </g>
    <g
       id="g589"
       transform="matrix(0.06202534,0,0,-0.06202534,7.4760523,4.0984498)">
      <path
         d="m 0,0 c 0,0 2.333,3.231 1.207,6.657 -1.13,3.434 -5.719,6.144 -5.482,5.59 C -3.549,10.523 -3.589,6.2 -2.961,4.339 -2.348,2.511 0,0 0,0"
         style="fill:#3ba336;fill-opacity:1;fill-rule:evenodd;stroke:none"
         id="path591" />
    </g>
    <g
       id="g593"
       transform="matrix(0.06202534,0,0,-0.06202534,6.7975137,3.7608458)">
      <path
         d="m 0,0 c 1.879,-1.167 5.786,-1.661 5.786,-1.661 0,0 -0.303,4.551 -3.814,6.756 C -1.535,7.307 -7.569,6.332 -6.952,6.014 -5.051,5.017 -1.916,1.182 0,0"
         style="fill:#3ba336;fill-opacity:1;fill-rule:evenodd;stroke:none"
         id="path595" />
    </g>
    <g
       id="g597"
       transform="matrix(0.06202534,0,0,-0.06202534,6.098836,13.226513)">
      <path
         d="m 0,0 c -3.951,2.164 -8.428,0.04 -8.428,0.04 0,0 2.539,-3.441 4.633,-4.611 2.134,-1.197 7.443,-2.145 9.393,-3.416 C 6.225,-8.396 3.959,-2.164 0,0"
         style="fill:#3ba336;fill-opacity:1;fill-rule:evenodd;stroke:none"
         id="path599" />
    </g>
    <g
       id="g601"
       transform="matrix(0.06202534,0,0,-0.06202534,4.4887389,12.356192)">
      <path
         d="m 0,0 c 2.355,-0.326 5.923,-1.607 11.365,-0.395 5.42,1.222 11.929,0.649 11.929,0.649 L 22.43,5.572 c 0,0 -14.404,-6.13 -31.273,-0.286 L -9.515,0.269 C -9.009,0.465 -2.36,0.317 0,0"
         style="fill:#96c0e8;fill-opacity:1;fill-rule:evenodd;stroke:none"
         id="path603" />
    </g>
    <g
       id="g605"
       transform="matrix(0.06202534,0,0,-0.06202534,4.2957594,12.809113)">
      <path
         d="m 0,0 c 0.868,-1.274 2.931,-3.917 6.31,-5.59 -0.1,-0.321 -0.148,-0.642 -0.148,-1 V -6.631 C 5.044,-6.106 -1.78,-3.541 -4.261,0.04 -3.434,0.04 -0.857,0.04 0,0 m 16.582,-0.21 c -1.478,-2.145 -3.641,-3.884 -4.376,-4.424 0.022,-0.048 0.04,-0.08 0.07,-0.11 -0.609,0.912 -1.62,1.539 -2.787,1.539 -1.06,0 -1.998,-0.506 -2.603,-1.284 -0.864,0.657 -2.788,2.27 -4.15,4.212 6.727,-0.997 8.809,-0.694 13.846,0.067 M 6.162,-7.757 v -0.606 c 0.354,-0.055 2.691,-0.324 6.543,2.581 -0.027,0.17 -0.089,0.351 -0.163,0.521 0.067,-0.141 0.107,-0.296 0.163,-0.41 l 0.015,-0.04 c 3.655,1.716 5.818,4.585 6.638,5.844 0.99,0.085 2.691,0.192 3.463,0.225 -2.473,-3.766 -8.935,-6.59 -9.995,-7.111 V -7.85 c 9.549,2.626 14.688,8.009 14.688,8.009 l -0.613,3.862 c 0,0 -5.549,0.313 -10.094,-0.787 C 12.276,2.175 7.491,2.098 4.815,2.799 2.134,3.504 -7.111,3.567 -7.111,3.567 L -7.735,0.133 c 0,0 4.589,-5.25 13.897,-7.89"
         style="fill:#96c0e8;fill-opacity:1;fill-rule:evenodd;stroke:none"
         id="path607" />
    </g>
    <g
       id="g609"
       transform="matrix(0.06202534,0,0,-0.06202534,6.6336249,14.337239)">
      <path
         d="m 0,0 1.17,4.02 c -14.606,0.694 -24.619,9.789 -26.034,11.155 v -0.72 c 0,-0.229 -0.029,-0.444 -0.085,-0.65 0.056,0.206 0.071,0.425 0.071,0.65 v 0.321 c -0.392,-0.173 -3.796,-1.584 -6.61,-0.635 0,0.022 -0.014,0.048 -0.014,0.089 -1.437,-1.377 -10.413,-9.516 -24.871,-10.21 l 1.329,-4.63 c 0,0 15.182,2.693 24.144,13.104 0.295,-0.435 0.712,-0.812 1.185,-1.037 -11.42,-13.012 -24.439,-15.146 -24.439,-15.146 l 1.111,-3.824 c 0,0 11.088,0.432 24.864,18.594 0.351,0.014 0.69,0.065 1.026,0.169 13.827,-18.331 24.996,-18.763 24.996,-18.763 l 1.004,3.481 c 0,0 -14.285,2.85 -24.752,16.061 0.24,0.232 0.439,0.487 0.602,0.775 -0.022,-0.018 -0.037,-0.062 -0.049,-0.099 C -16.45,1.85 0,0 0,0"
         style="fill:#96c0e8;fill-opacity:1;fill-rule:evenodd;stroke:none"
         id="path611" />
    </g>
    <g
       id="g613"
       transform="matrix(0.06202534,0,0,-0.06202534,5.018342,6.257248)">
      <path
         d="M 0,0 -3.582,-0.384 V -0.41 -0.432 l 0.178,-35.036 3.869,-0.487 z"
         style="fill:#aa744a;fill-opacity:1;fill-rule:evenodd;stroke:none"
         id="path615" />
    </g>
    <g
       id="g617"
       transform="matrix(0.06202534,0,0,-0.06202534,6.5307992,5.9249347)">
      <path
         d="m 0,0 c -1.406,3.751 -4.534,6.462 -10.489,7.429 -2.991,0.502 -6.269,0.365 -8.939,-0.21 1.248,0.506 2.399,0.834 3.305,0.923 h 0.032 c 0.019,0 0.041,0 0.049,0.007 0.081,0.033 0.14,0.099 0.14,0.192 0,0.029 0,0.048 -0.019,0.095 -0.022,0.023 -0.055,0.037 -0.062,0.045 -0.059,0.063 -0.133,0.144 -0.189,0.207 -0.395,0.35 -0.923,0.654 -1.517,0.834 0.912,0.237 1.787,0.351 2.607,0.351 h 0.324 c 0.602,-0.008 1.197,-0.092 1.747,-0.247 0.022,-0.018 0.048,-0.018 0.084,-0.026 0.101,0 0.197,0.092 0.197,0.206 v 0.012 c -0.022,0.04 -0.03,0.055 -0.049,0.092 -0.148,0.321 -0.324,0.643 -0.58,0.945 0.034,0.03 0.06,0.059 0.086,0.059 0.975,-0.059 1.908,-0.291 2.772,-0.649 0.012,-0.034 0.041,-0.034 0.056,-0.052 h 0.048 c 0.107,0 0.192,0.092 0.192,0.177 v 0.063 c -0.026,0.014 -0.037,0.041 -0.037,0.063 -0.048,0.107 -0.074,0.191 -0.155,0.302 -0.244,0.469 -0.543,0.856 -0.872,1.197 1.382,0.649 2.659,1.034 3.833,1.189 0.037,0.007 0.062,0.007 0.092,0.007 0.074,0.04 0.126,0.096 0.126,0.188 0,0.044 -0.018,0.085 -0.052,0.129 -0.04,0.019 -0.067,0.034 -0.074,0.041 -2.684,1.673 -5.944,1.839 -10.149,-0.402 -1.814,-0.953 -3.571,-2.312 -4.911,-3.719 -0.141,0.189 -0.284,0.358 -0.425,0.532 0.425,0.757 0.857,1.403 1.293,1.872 0.015,0.015 0.022,0.022 0.037,0.044 0.029,0.034 0.033,0.064 0.033,0.096 0,0.092 -0.048,0.159 -0.141,0.185 -0.018,0.008 -0.04,0.008 -0.07,0.008 -0.07,0.007 -0.133,0.007 -0.192,0.007 -0.472,0.022 -0.985,-0.1 -1.491,-0.34 0.465,0.698 0.978,1.281 1.513,1.776 0.071,0.055 0.156,0.141 0.222,0.185 0.403,0.324 0.812,0.613 1.255,0.83 0.015,0 0.044,0.015 0.052,0.03 0.048,0.034 0.085,0.078 0.085,0.151 0,0.074 -0.037,0.115 -0.085,0.155 -0.015,0 -0.052,0 -0.066,0.019 -0.259,0.136 -0.562,0.225 -0.89,0.277 0,0.029 0.022,0.07 0.029,0.077 0.669,0.528 1.4,0.901 2.168,1.167 0.022,0 0.044,0.011 0.059,0.011 0.055,0.037 0.096,0.092 0.096,0.162 0,0.074 -0.027,0.137 -0.078,0.182 -0.018,0.007 -0.04,0.01 -0.07,0.033 -0.07,0.014 -0.148,0.041 -0.21,0.07 -0.425,0.162 -0.872,0.255 -1.289,0.302 0.539,1.201 1.141,2.164 1.82,2.947 0.007,0.029 0.034,0.052 0.049,0.059 0.007,0.055 0.018,0.07 0.018,0.103 0,0.092 -0.085,0.196 -0.188,0.196 -0.019,0 -0.052,0 -0.071,-0.015 -2.706,-0.498 -4.932,-2.278 -6.417,-6.18 -0.354,-0.928 -0.631,-1.913 -0.812,-2.891 -0.104,0 -0.214,-0.011 -0.307,-0.011 -0.177,0.974 -0.45,1.964 -0.812,2.902 -1.476,3.902 -3.711,5.682 -6.417,6.18 -0.022,0.015 -0.026,0.015 -0.063,0.015 -0.107,0 -0.191,-0.104 -0.191,-0.196 0,-0.033 0.015,-0.048 0.022,-0.103 0.01,-0.022 0.022,-0.03 0.047,-0.052 0.672,-0.782 1.289,-1.753 1.799,-2.954 -0.414,-0.047 -0.849,-0.14 -1.271,-0.302 -0.066,-0.029 -0.114,-0.056 -0.195,-0.07 -0.041,-0.023 -0.059,-0.023 -0.078,-0.033 -0.055,-0.045 -0.077,-0.108 -0.077,-0.182 0,-0.07 0.04,-0.132 0.107,-0.162 h 0.007 c 0.783,-0.277 1.525,-0.635 2.204,-1.178 0.015,-0.007 0.022,-0.048 0.022,-0.077 -0.317,-0.052 -0.616,-0.141 -0.882,-0.262 -0.037,-0.015 -0.059,-0.034 -0.074,-0.034 -0.044,-0.04 -0.073,-0.081 -0.073,-0.155 0,-0.073 0.029,-0.117 0.073,-0.151 0.015,-0.015 0.03,-0.03 0.045,-0.03 0.442,-0.217 0.871,-0.506 1.262,-0.83 0.074,-0.044 0.152,-0.13 0.229,-0.185 0.535,-0.495 1.046,-1.078 1.503,-1.776 -0.499,0.24 -1.015,0.362 -1.481,0.34 -0.059,0 -0.121,0 -0.192,-0.007 h -0.025 c -0.019,0 -0.034,0 -0.056,-0.008 -0.092,-0.026 -0.132,-0.093 -0.132,-0.185 0,-0.032 0.007,-0.062 0.022,-0.088 0.01,-0.03 0.018,-0.037 0.052,-0.052 0.486,-0.528 0.978,-1.27 1.461,-2.175 -0.121,-0.155 -0.24,-0.303 -0.369,-0.483 -1.37,1.495 -3.209,2.957 -5.139,3.973 -4.202,2.241 -7.448,2.075 -10.151,0.424 -0.01,-0.022 -0.04,-0.044 -0.059,-0.056 -0.051,-0.037 -0.058,-0.092 -0.058,-0.136 0,-0.092 0.058,-0.148 0.132,-0.188 0.026,0 0.044,-0.007 0.067,-0.007 1.185,-0.155 2.452,-0.54 3.832,-1.189 -0.324,-0.341 -0.624,-0.728 -0.856,-1.197 -0.077,-0.111 -0.107,-0.195 -0.156,-0.302 -0.014,-0.022 -0.022,-0.049 -0.037,-0.063 V 10.39 c 0,-0.085 0.086,-0.185 0.193,-0.185 0,0 0.011,0.008 0.041,0.008 0.025,0 0.055,0.018 0.07,0.052 0.863,0.358 1.769,0.59 2.758,0.649 0.036,0 0.062,-0.029 0.08,-0.059 -0.239,-0.302 -0.442,-0.624 -0.56,-0.945 -0.03,-0.037 -0.045,-0.045 -0.052,-0.077 V 9.806 c 0,-0.114 0.099,-0.198 0.185,-0.198 h 0.04 c 0.026,0 0.037,0 0.052,0.018 0.542,0.155 1.141,0.239 1.746,0.247 h 0.318 c 0.83,0 1.687,-0.114 2.625,-0.351 -0.62,-0.18 -1.134,-0.484 -1.536,-0.834 -0.059,-0.063 -0.129,-0.144 -0.192,-0.207 -0.015,-0.008 -0.025,-0.022 -0.04,-0.045 -0.008,-0.04 -0.027,-0.066 -0.027,-0.095 0,-0.093 0.052,-0.159 0.13,-0.192 0.026,-0.007 0.036,-0.007 0.051,-0.007 h 0.026 c 0.901,-0.089 2.061,-0.417 3.316,-0.923 -2.673,0.575 -5.952,0.712 -8.935,0.21 C -48.109,6.462 -51.24,3.751 -52.655,0 c -0.014,-0.033 -0.029,-0.04 -0.029,-0.077 v -0.03 c 0,-0.096 0.1,-0.189 0.192,-0.189 0.03,0 0.052,0.008 0.071,0.008 0.022,0.004 0.037,0.011 0.04,0.034 1.344,0.767 2.942,1.402 4.87,1.812 -0.074,-0.58 -0.067,-1.233 0.051,-1.861 0.03,-0.177 0.049,-0.369 0.119,-0.558 0,-0.029 0,-0.036 0.007,-0.069 0.037,-0.074 0.1,-0.1 0.181,-0.1 0.056,0 0.103,0.018 0.148,0.059 0,0.03 0.011,0.066 0.019,0.074 0.583,1.082 1.343,2.045 2.318,2.854 0.052,0 0.093,0 0.14,0.03 -0.022,-0.528 0.037,-1.042 0.166,-1.507 0,-0.015 0.019,-0.048 0.019,-0.085 0.03,-0.07 0.099,-0.103 0.17,-0.103 0.048,0 0.114,0.033 0.136,0.056 0.004,0.029 0.012,0.044 0.026,0.047 0.473,0.598 1.004,1.163 1.628,1.669 0.089,0.089 0.207,0.177 0.314,0.244 0.831,0.631 1.78,1.185 2.906,1.609 -0.465,-0.624 -0.782,-1.303 -0.912,-1.967 -0.018,-0.155 -0.052,-0.311 -0.052,-0.444 V 1.459 1.41 c 0.026,-0.081 0.111,-0.136 0.196,-0.136 0.026,0 0.063,0 0.081,0.007 0.008,0.015 0.03,0.015 0.044,0.026 0.935,0.594 2.319,1.159 3.973,1.618 -2.426,-1.156 -4.94,-2.862 -7.004,-4.826 -4.741,-4.601 -5.889,-8.968 -4.781,-13.211 0,-0.026 0.018,-0.071 0.033,-0.081 0.026,-0.067 0.088,-0.115 0.17,-0.115 0.059,0 0.118,0.034 0.155,0.1 0,0.015 0.015,0.022 0.026,0.04 0.687,1.525 1.761,3.102 3.249,4.682 0.299,-0.583 0.694,-1.148 1.197,-1.657 0.14,-0.137 0.294,-0.3 0.45,-0.429 0.019,-0.029 0.044,-0.052 0.096,-0.074 0.011,-0.01 0.041,-0.01 0.066,-0.01 0.114,0 0.207,0.084 0.207,0.18 0,0.015 0,0.04 -0.011,0.067 -0.151,1.321 -0.082,2.698 0.303,4.046 0.025,0.052 0.066,0.088 0.106,0.107 0.311,-0.491 0.684,-0.923 1.093,-1.266 0.023,-0.034 0.049,-0.056 0.093,-0.071 h 0.07 c 0.099,0 0.148,0.056 0.177,0.123 0,0.03 0.011,0.044 0.011,0.055 0,0.015 0,0.022 -0.011,0.034 0.045,0.845 0.193,1.661 0.418,2.517 0.066,0.133 0.099,0.277 0.14,0.403 0.376,1.074 0.879,2.171 1.599,3.253 -0.026,-0.872 0.136,-1.662 0.424,-2.341 0.085,-0.162 0.155,-0.292 0.263,-0.451 0.014,-0.037 0.025,-0.044 0.04,-0.062 0.026,-0.034 0.078,-0.059 0.137,-0.059 0.066,0 0.132,0.037 0.162,0.084 v 0.07 c 0.761,1.754 2.489,4.095 4.841,6.359 0.41,0.391 0.837,0.775 1.244,1.141 0.354,-1.02 0.86,-1.895 1.503,-2.57 -0.041,-0.34 -0.096,-0.687 -0.096,-1.046 0,-1.498 0.594,-2.835 1.476,-3.647 l -0.007,-0.03 0.007,-0.018 3.615,-0.022 V -5.807 -5.8 c 0.941,0.79 1.573,2.167 1.573,3.717 0,0.344 -0.03,0.669 -0.096,0.997 0.613,0.606 1.1,1.411 1.451,2.334 0.303,-0.285 0.605,-0.579 0.908,-0.856 2.349,-2.264 4.08,-4.605 4.833,-6.352 0,-0.04 0.019,-0.04 0.026,-0.077 0.045,-0.047 0.085,-0.084 0.159,-0.084 0.056,0 0.088,0.025 0.133,0.066 0.022,0.011 0.029,0.018 0.041,0.055 0.092,0.159 0.184,0.289 0.262,0.451 0.295,0.679 0.454,1.469 0.413,2.341 0.717,-1.082 1.241,-2.179 1.599,-3.253 0.059,-0.126 0.096,-0.27 0.136,-0.403 0.256,-0.856 0.392,-1.672 0.418,-2.488 0,-0.048 0.014,-0.074 0.014,-0.118 0.026,-0.067 0.085,-0.123 0.174,-0.123 0.03,0 0.082,0 0.099,0.015 0.008,0.008 0.037,0.022 0.045,0.056 0.41,0.324 0.805,0.756 1.115,1.266 0.037,-0.019 0.067,-0.055 0.107,-0.107 0.365,-1.348 0.461,-2.706 0.295,-4.046 v -0.067 -0.004 c 0,-0.092 0.092,-0.176 0.185,-0.176 0.037,0 0.07,0.01 0.092,0.032 0.037,0.008 0.052,0.023 0.074,0.052 0.159,0.129 0.318,0.292 0.476,0.429 0.488,0.509 0.883,1.074 1.182,1.657 1.491,-1.58 2.544,-3.157 3.256,-4.682 0.015,-0.015 0.015,-0.025 0.015,-0.04 0.052,-0.052 0.093,-0.1 0.163,-0.1 0.07,0 0.155,0.056 0.173,0.122 0.019,0.018 0.019,0.048 0.026,0.055 1.097,4.262 -0.044,8.629 -4.8,13.23 -2.041,1.964 -4.56,3.67 -6.974,4.826 1.639,-0.459 3.023,-1.024 3.958,-1.618 0.022,-0.011 0.033,-0.026 0.062,-0.026 0.019,-0.007 0.049,-0.033 0.074,-0.033 0.089,0 0.174,0.081 0.189,0.162 v 0.096 c 0,0.133 -0.026,0.289 -0.066,0.444 -0.096,0.664 -0.422,1.343 -0.898,1.967 1.126,-0.424 2.09,-0.978 2.905,-1.609 0.115,-0.067 0.222,-0.155 0.318,-0.244 0.624,-0.506 1.152,-1.059 1.607,-1.647 0.014,-0.025 0.018,-0.059 0.04,-0.069 0.051,-0.023 0.085,-0.056 0.14,-0.056 0.074,0 0.137,0.033 0.163,0.103 0.018,0.037 0.018,0.07 0.025,0.085 0.133,0.465 0.189,0.979 0.17,1.507 0.037,-0.03 0.082,-0.03 0.126,-0.03 0.986,-0.809 1.735,-1.772 2.33,-2.847 0,-0.015 0,-0.051 0.033,-0.092 0.033,-0.03 0.081,-0.048 0.14,-0.048 0.081,0 0.148,0.026 0.177,0.125 0.012,0.008 0.012,0.015 0.012,0.044 0.047,0.182 0.07,0.381 0.121,0.558 0.104,0.628 0.104,1.281 0.041,1.861 1.949,-0.41 3.548,-1.045 4.87,-1.835 0.008,0 0.023,-0.007 0.023,-0.007 0.025,-0.004 0.051,-0.012 0.077,-0.012 0.103,0 0.202,0.093 0.202,0.197 v 0.022 C 0.022,-0.04 0.008,-0.033 0,0"
         style="fill:#3ba336;fill-opacity:1;fill-rule:evenodd;stroke:none"
         id="path619" />
    </g>
    <g
       id="g621"
       transform="matrix(0.06202534,0,0,-0.06202534,4.6989674,1.973164)">
      <path
         d="M 0,0 -0.026,0.026 -0.085,0.084 -0.21,0.17 -0.377,0.276 -0.923,0.594 -1.499,0.864 -2.049,1.085 -2.603,1.273 -3.146,1.399 -3.689,1.469 -4.213,1.54 -4.748,1.569 H -5.28 L -5.808,1.54 -6.299,1.469 -6.772,1.399 -7.244,1.303 -7.717,1.167 -8.149,1.034 -8.584,0.883 -9.001,0.735 -9.386,0.553 -9.755,0.365 l -0.358,-0.166 -0.339,-0.192 -0.292,-0.162 -0.296,-0.181 -0.254,-0.17 -0.432,-0.269 -0.333,-0.262 -0.18,-0.156 -0.074,-0.066 v -0.015 l 0.007,-0.015 0.044,-0.041 0.063,-0.04 0.048,-0.018 h 0.052 0.092 l 0.089,0.018 0.118,0.04 0.14,0.022 0.133,0.049 0.177,0.084 0.17,0.138 0.21,0.169 0.281,0.155 0.336,0.163 0.358,0.188 0.399,0.181 0.439,0.181 0.469,0.17 0.447,0.14 0.513,0.144 0.499,0.14 0.506,0.107 0.516,0.074 0.503,0.052 0.254,0.015 0.244,0.022 0.221,-0.022 h 0.259 L -4.43,0.797 -4.135,0.735 -3.851,0.668 -3.549,0.565 -2.984,0.358 -2.466,0.121 -2.197,0 l 0.274,-0.107 0.25,-0.074 0.229,-0.096 0.237,-0.059 0.244,-0.041 h 0.129 0.106 0.111 l 0.122,0.015 0.152,0.026 0.125,0.007 0.085,0.045 0.078,0.037 0.055,0.037 0.033,0.037 0.015,0.032 v 0.034 l -0.015,0.059 z"
         style="fill:#1d1d1b;fill-opacity:1;fill-rule:evenodd;stroke:none"
         id="path623" />
    </g>
    <g
       id="g625"
       transform="matrix(0.06202534,0,0,-0.06202534,4.6032433,2.0726527)">
      <path
         d="M 0,0 -0.473,0.188 -0.919,0.372 -1.381,0.509 -1.831,0.62 -2.278,0.701 -2.714,0.735 -3.161,0.764 -3.567,0.742 -3.973,0.727 -4.394,0.656 -4.8,0.62 -5.18,0.531 -5.575,0.409 -5.908,0.317 -6.269,0.188 -6.602,0.077 l -0.317,-0.11 -0.295,-0.155 -0.547,-0.267 -0.44,-0.266 -0.642,-0.424 -0.232,-0.163 v -0.04 l 0.04,-0.007 0.037,-0.052 h 0.085 l 0.155,0.029 0.181,0.03 0.244,0.099 0.147,0.096 0.17,0.123 0.229,0.118 0.247,0.117 0.292,0.13 0.303,0.126 0.343,0.136 0.37,0.114 0.38,0.119 0.383,0.1 0.4,0.084 0.402,0.074 0.399,0.067 0.406,0.033 0.384,0.022 0.369,-0.022 0.288,-0.018 0.318,-0.034 0.265,-0.088 0.266,-0.066 0.543,-0.204 0.506,-0.173 0.244,-0.092 0.24,-0.064 0.217,-0.062 0.244,-0.037 0.218,-0.015 h 0.225 l 0.122,0.015 0.114,0.022 0.104,0.033 0.1,0.044 -0.466,0.296 z"
         style="fill:#1d1d1b;fill-opacity:1;fill-rule:evenodd;stroke:none"
         id="path627" />
    </g>
    <g
       id="g629"
       transform="matrix(0.06202534,0,0,-0.06202534,4.5808651,2.2192991)">
      <path
         d="m 0,0 v 0 l -0.332,-0.14 -0.344,-0.17 -0.317,-0.137 -0.344,-0.096 -0.339,-0.092 -0.325,-0.1 -0.133,-0.022 0.118,0.122 0.17,0.177 0.126,0.174 0.107,0.21 0.122,0.222 0.077,0.236 0.022,0.218 0.015,0.281 V 1.052 L -1.414,1.222 -1.443,1.403 -1.458,1.484 -1.377,1.451 -1.019,1.296 -0.701,1.052 -0.332,0.812 0,0.539 0.363,0.188 Z m -5.01,-0.768 v 0 l -0.269,0.033 -0.241,0.063 -0.262,0.063 -0.447,0.151 -0.417,0.122 -0.387,0.141 -0.303,0.136 -0.266,0.121 -0.199,0.115 0.199,0.141 0.554,0.388 0.41,0.247 0.461,0.236 0.255,0.107 0.285,0.107 0.066,0.041 L -5.59,1.348 -5.604,1.192 -5.619,1.03 -5.634,0.883 -5.619,0.735 -5.604,0.602 -5.59,0.473 l 0.019,-0.13 0.022,-0.118 0.066,-0.118 0.044,-0.122 0.045,-0.099 0.066,-0.126 0.049,-0.096 0.07,-0.103 0.096,-0.092 0.074,-0.078 0.106,-0.085 0.086,-0.081 0.01,-0.008 z m 0.247,2.463 v 0 l 0.296,0.059 0.332,0.033 0.332,0.067 h 0.092 L -3.803,1.824 -3.902,1.78 -3.995,1.754 -4.072,1.695 -4.143,1.639 -4.242,1.569 -4.29,1.518 -4.331,1.41 -4.419,1.337 -4.445,1.234 -4.479,1.16 -4.504,1.052 -4.538,0.953 V 0.868 0.735 L -4.504,0.642 -4.479,0.558 -4.445,0.447 -4.419,0.358 -4.331,0.292 -4.29,0.188 -4.242,0.129 -4.143,0.062 -4.072,0 l 0.077,-0.059 0.093,-0.048 0.099,-0.014 0.092,-0.019 0.096,-0.03 h 0.108 0.107 l 0.092,0.03 0.11,0.019 0.089,0.014 0.074,0.048 0.1,0.059 0.092,0.062 0.07,0.067 0.052,0.059 0.071,0.104 0.036,0.066 0.063,0.089 0.026,0.111 0.03,0.084 0.007,0.093 v 0.133 0.085 l -0.007,0.099 -0.03,0.108 -0.026,0.074 -0.063,0.103 -0.036,0.073 -0.071,0.108 -0.052,0.051 -0.07,0.07 -0.092,0.056 -0.1,0.059 -0.074,0.026 -0.089,0.044 -0.11,0.037 h 0.184 L -2.798,1.824 -2.421,1.78 -2.085,1.695 -2.045,1.68 -2.016,1.647 -1.979,1.54 -1.949,1.451 -1.89,1.348 -1.853,1.222 -1.846,1.115 -1.831,1.004 -1.816,0.883 -1.831,0.706 -1.853,0.539 -1.916,0.384 -1.949,0.21 -2.016,0.062 -2.112,-0.074 -2.226,-0.195 -2.311,-0.31 l -0.11,-0.129 -0.13,-0.092 -0.148,-0.078 -0.144,-0.077 -0.184,-0.049 -0.144,-0.033 -0.166,-0.029 h -0.17 -0.163 l -0.177,0.029 -0.148,0.033 -0.148,0.049 -0.161,0.077 -0.13,0.078 -0.133,0.092 -0.107,0.129 -0.133,0.115 -0.085,0.121 -0.092,0.136 -0.063,0.148 -0.066,0.174 -0.026,0.155 -0.026,0.167 -0.022,0.177 0.022,0.176 0.048,0.244 0.07,0.188 0.045,0.123 z M -3.507,1.54 v 0 L -3.359,1.533 -3.23,1.491 -3.109,1.444 -3.027,1.348 -2.927,1.234 -2.861,1.115 -2.828,1.004 -2.813,0.868 -2.828,0.706 -2.861,0.58 -2.927,0.465 -3.027,0.358 -3.109,0.284 -3.23,0.21 -3.359,0.17 -3.507,0.148 -3.633,0.17 -3.777,0.21 -3.902,0.284 -3.995,0.358 -4.072,0.465 -4.135,0.58 -4.183,0.706 -4.19,0.868 l 0.007,0.136 0.048,0.111 0.063,0.119 0.077,0.114 0.093,0.096 0.125,0.047 0.144,0.042 z M 0.248,0.905 -0.143,1.207 -0.56,1.469 -0.971,1.695 -1.392,1.868 -1.809,2.009 -2.226,2.112 -2.628,2.164 -3.035,2.197 H -3.426 L -3.817,2.179 -4.223,2.145 -4.582,2.071 -4.933,1.972 -5.316,1.868 -5.637,1.754 -5.989,1.617 -6.306,1.491 -6.609,1.348 -6.893,1.192 -7.162,1.052 -7.406,0.905 -7.613,0.775 -8.001,0.495 -8.277,0.306 -8.451,0.148 -8.525,0.107 l 0.248,-0.125 0.303,-0.174 0.39,-0.163 0.422,-0.188 0.506,-0.17 0.52,-0.162 0.284,-0.074 0.303,-0.063 0.31,-0.066 0.333,-0.07 0.324,-0.026 0.34,-0.033 0.34,-0.022 h 0.354 0.365 l 0.355,0.037 0.366,0.04 0.399,0.066 0.373,0.074 0.395,0.071 0.376,0.144 0.388,0.125 0.395,0.177 0.398,0.185 0.403,0.196 0.395,0.262 -0.395,0.41 z"
         style="fill:#1d1d1b;fill-opacity:1;fill-rule:evenodd;stroke:none"
         id="path631" />
    </g>
    <g
       id="g633"
       transform="matrix(0.06202534,0,0,-0.06202534,5.8088178,2.0212459)">
      <path
         d="m 0,0 -0.318,0.229 -0.44,0.302 -0.257,0.167 -0.267,0.17 -0.317,0.169 -0.325,0.192 -0.362,0.163 -0.365,0.185 -0.395,0.148 -0.414,0.183 -0.417,0.156 -0.458,0.125 -0.473,0.13 -0.45,0.095 L -5.753,2.473 -6.244,2.559 -6.758,2.588 -7.274,2.611 -7.802,2.566 -8.348,2.507 -8.884,2.414 -9.426,2.278 -9.999,2.083 l -0.569,-0.197 -0.539,-0.269 -0.56,-0.31 -0.156,-0.1 -0.129,-0.103 -0.048,-0.06 -0.037,-0.04 -0.037,-0.059 h -0.011 V 0.883 l 0.011,-0.049 0.037,-0.029 0.048,-0.03 0.07,-0.04 0.111,-0.022 0.114,-0.041 0.152,-0.03 h 0.107 l 0.121,-0.007 h 0.126 l 0.115,0.007 0.228,0.056 0.244,0.044 0.24,0.092 0.247,0.111 0.266,0.092 0.266,0.108 0.524,0.225 0.577,0.222 0.287,0.091 0.285,0.071 0.302,0.066 0.299,0.015 0.234,0.03 h 0.247 0.24 l 0.254,-0.03 0.495,-0.026 0.502,-0.084 0.521,-0.119 0.506,-0.122 0.498,-0.162 0.473,-0.162 0.439,-0.156 0.458,-0.17 0.384,-0.162 0.388,-0.181 0.314,-0.188 0.28,-0.155 0.221,-0.148 0.16,-0.136 0.184,-0.067 0.147,-0.074 0.115,-0.041 0.114,-0.033 0.101,-0.007 H 0.04 0.106 l 0.041,0.007 0.092,0.033 0.022,0.041 0.015,0.03 v 0.044 L 0.217,-0.17 Z"
         style="fill:#1d1d1b;fill-opacity:1;fill-rule:evenodd;stroke:none"
         id="path635" />
    </g>
    <g
       id="g637"
       transform="matrix(0.06202534,0,0,-0.06202534,5.667084,2.1028899)">
      <path
         d="m 0,0 -0.473,0.269 -0.531,0.27 -0.299,0.13 -0.31,0.136 -0.344,0.14 -0.336,0.096 -0.358,0.107 -0.384,0.1 -0.383,0.074 -0.4,0.07 -0.417,0.066 -0.402,0.033 H -5.051 L -5.505,1.469 -5.94,1.422 -6.372,1.355 -6.841,1.229 -7.303,1.108 -7.746,0.919 -8.23,0.701 -8.665,0.462 -9.123,0.177 -9.008,0.144 -8.89,0.107 -8.798,0.085 -8.68,0.077 h 0.229 l 0.21,0.008 0.237,0.044 0.228,0.063 0.248,0.077 0.265,0.064 0.481,0.188 0.528,0.18 0.28,0.082 0.281,0.056 0.306,0.058 0.277,0.048 h 0.388 0.358 l 0.428,-0.062 0.395,-0.063 0.395,-0.063 0.395,-0.1 0.392,-0.092 0.373,-0.118 0.373,-0.129 0.332,-0.118 0.303,-0.123 0.292,-0.144 0.254,-0.106 0.23,-0.13 0.184,-0.114 0.147,-0.089 0.229,-0.103 0.207,-0.055 0.129,-0.022 0.074,0.022 0.067,0.022 0.022,0.033 0.007,0.029 -0.229,0.178 z"
         style="fill:#1d1d1b;fill-opacity:1;fill-rule:evenodd;stroke:none"
         id="path639" />
    </g>
    <g
       id="g641"
       transform="matrix(0.06202534,0,0,-0.06202534,5.6514782,2.1993828)">
      <path
         d="m 0,0 v 0 l -0.247,-0.148 -0.34,-0.107 -0.366,-0.17 -0.402,-0.133 -0.473,-0.121 -0.248,-0.078 -0.257,-0.026 -0.263,-0.081 -0.203,-0.019 0.148,0.1 0.177,0.181 0.141,0.214 0.129,0.192 0.099,0.229 0.063,0.243 0.033,0.111 0.026,0.137 v 0.14 L -1.972,0.79 -1.983,0.945 -1.99,1.118 -2.016,1.255 -2.049,1.347 -1.957,1.322 -1.681,1.214 -1.429,1.093 -0.982,0.871 -0.543,0.634 0,0.254 0.203,0.121 Z m -5.605,-0.783 v 0 l -0.318,0.055 -0.339,0.1 -0.325,0.111 -0.336,0.129 -0.325,0.159 -0.358,0.181 -0.336,0.177 0.336,0.325 0.358,0.281 0.343,0.24 0.34,0.225 0.355,0.177 0.081,0.037 L -6.17,1.322 -6.192,1.145 -6.21,0.975 V 0.79 0.664 0.55 l 0.018,-0.14 0.022,-0.134 0.066,-0.221 0.097,-0.225 0.125,-0.207 0.136,-0.188 0.148,-0.163 0.085,-0.089 z m 0.432,2.481 v 0 l 0.365,0.056 0.344,0.033 h 0.258 L -4.298,1.769 -4.394,1.754 -4.505,1.739 -4.571,1.661 -4.667,1.624 -4.741,1.55 -4.808,1.491 -4.877,1.414 -4.937,1.347 -5.003,1.248 -5.037,1.182 -5.066,1.078 -5.088,0.975 l -0.014,-0.1 -0.008,-0.1 0.008,-0.089 0.014,-0.099 0.022,-0.126 0.029,-0.081 0.034,-0.104 0.066,-0.073 0.06,-0.074 0.069,-0.074 0.067,-0.07 0.074,-0.07 0.096,-0.044 0.066,-0.041 0.111,-0.026 0.096,-0.033 h 0.092 0.1 0.11 0.104 l 0.089,0.033 0.122,0.026 0.062,0.041 0.085,0.044 0.085,0.07 0.063,0.07 0.081,0.074 0.056,0.074 0.062,0.073 0.041,0.104 0.029,0.081 0.022,0.126 0.019,0.099 v 0.089 0.1 L -3.095,0.975 -3.117,1.078 -3.146,1.182 -3.187,1.248 -3.249,1.347 -3.305,1.414 -3.386,1.491 -3.449,1.55 -3.534,1.624 -3.619,1.661 -3.681,1.739 -3.803,1.754 -3.892,1.769 -3.944,1.772 -3.781,1.769 -3.46,1.739 -3.139,1.661 -2.821,1.584 -2.604,1.54 -2.53,1.414 -2.474,1.214 -2.422,1.019 -2.407,0.79 -2.422,0.616 -2.463,0.454 -2.5,0.276 -2.548,0.148 -2.629,0 -2.707,-0.148 -2.799,-0.27 -2.913,-0.388 -3.039,-0.514 -3.146,-0.602 -3.301,-0.679 -3.449,-0.757 -3.596,-0.817 -3.759,-0.864 h -0.185 l -0.162,-0.026 -0.169,0.026 h -0.17 l -0.148,0.047 -0.17,0.06 -0.133,0.078 -0.141,0.077 -0.136,0.088 -0.114,0.126 -0.101,0.118 -0.088,0.122 L -5.576,0 -5.63,0.148 -5.697,0.276 -5.738,0.454 -5.771,0.616 V 0.79 0.897 l 0.025,0.132 0.008,0.116 0.041,0.103 0.052,0.129 0.022,0.092 0.047,0.115 0.019,0.033 0.037,0.007 z m 1.222,-0.247 v 0 L -3.826,1.414 -3.703,1.347 -3.619,1.248 -3.527,1.152 -3.46,1.044 -3.419,0.912 -3.404,0.775 -3.419,0.634 -3.46,0.524 -3.527,0.387 -3.619,0.276 -3.703,0.203 -3.826,0.148 -3.951,0.121 l -0.155,-0.04 -0.14,0.04 -0.13,0.027 -0.129,0.055 -0.088,0.073 -0.074,0.111 -0.074,0.137 -0.03,0.11 -0.01,0.141 0.01,0.137 0.03,0.132 0.074,0.108 0.074,0.096 0.088,0.099 0.129,0.067 0.13,0.037 0.14,0.007 z M 0.022,0.686 -0.196,0.834 -0.451,0.975 -0.728,1.133 -1.005,1.255 -1.308,1.414 -1.607,1.547 -1.957,1.661 -2.282,1.787 -2.636,1.894 -3.002,1.972 -3.397,2.063 -3.781,2.09 -4.169,2.119 H -4.571 L -4.978,2.075 -5.388,2.023 -5.793,1.923 -6.21,1.787 -6.617,1.599 -7.045,1.384 -7.462,1.145 -7.846,0.834 -8.253,0.461 -8.651,0.055 l 0.398,-0.225 0.396,-0.218 0.388,-0.185 0.402,-0.184 0.384,-0.133 0.391,-0.115 0.384,-0.099 0.384,-0.085 0.385,-0.045 0.358,-0.062 0.365,-0.008 h 0.369 0.366 l 0.324,0.008 0.348,0.037 0.331,0.052 0.296,0.04 0.311,0.078 0.317,0.059 0.27,0.066 0.553,0.181 0.499,0.163 0.421,0.18 0.388,0.185 0.299,0.141 0.262,0.132 -0.262,0.192 z"
         style="fill:#1d1d1b;fill-opacity:1;fill-rule:evenodd;stroke:none"
         id="path643" />
    </g>
  </g>
</svg>
